<svg width="77px" height="60px" viewBox="0 0 77 60" version="1.1"
    xmlns="http://www.w3.org/2000/svg"
    xmlns:xlink="http://www.w3.org/1999/xlink">
    <g id="fw" stroke="none" stroke-width="1" fill="none" fill-rule="evenodd">
        <g id="Homepage" transform="translate(-30.000000, -388.000000)" fill="#333">
            <g id="Body" transform="translate(0.000000, 348.000000)">
                <path d="M106.675781,49.2304688 L99.3515625,55.4804688 C95.7708154,58.5403799 93.9804688,62.283832 93.9804688,66.7109375 C93.9804688,69.3802217 95.5755049,72.4726387 98.765625,75.9882812 C101.955745,79.5039238 103.550781,82.7265479 103.550781,85.65625 C103.550781,95.2266104 98.8307764,100.011719 89.390625,100.011719 C79.2994287,100.011719 74.2539062,94.2500576 74.2539062,82.7265625 C74.2539062,65.4738721 82.8801221,51.4115127 100.132812,40.5390625 L106.675781,49.2304688 Z M62.7304688,49.2304688 L55.40625,55.4804688 C51.8255029,58.5403799 50.0351562,62.283832 50.0351562,66.7109375 C50.0351562,69.3802217 51.6301924,72.4726387 54.8203125,75.9882812 C58.0104326,79.5039238 59.6054688,82.7265479 59.6054688,85.65625 C59.6054688,95.2266104 54.8854639,100.011719 45.4453125,100.011719 C35.3541162,100.011719 30.3085938,94.2500576 30.3085938,82.7265625 C30.3085938,65.4738721 38.9348096,51.4115127 56.1875,40.5390625 L62.7304688,49.2304688 Z" id="“"></path>
            </g>
        </g>
    </g>
</svg>
