<svg width="44px" height="44px" viewBox="0 0 44 44" version="1.1" xmlns="http://www.w3.org/2000/svg" xmlns:xlink="http://www.w3.org/1999/xlink">
    <g id="fw" stroke="none" stroke-width="1" fill="none" fill-rule="evenodd">
        <g id="Social-Icons" transform="translate(-292.000000, -28.000000)">
            <g id="photobucket" transform="translate(292.000000, 28.000000)">
                <rect id="Rectangle" x="0" y="0" width="44" height="44"></rect>
                <circle id="Oval" stroke="#000000" stroke-width="2" cx="22" cy="22" r="21"></circle>
                <path d="M31.0627069,15.8177631 L33.7728331,15.8177631 L33.7728331,28.842021 L30.6053083,28.842021 C32.1376732,26.8652109 32.9480814,24.4169272 32.9002697,21.9066922 C32.9018634,19.7383962 32.2619836,17.6175695 31.0627069,15.8177631 L31.0627069,15.8177631 Z M10.2279637,15.8177631 L13.1516489,15.8177631 C11.9507785,17.6167649 11.3093049,19.7375917 11.308508,21.9066922 C11.2630869,24.4177318 12.0790732,26.86682 13.6154223,28.842021 L10.2279637,28.842021 L10.2279637,15.8177631 Z M22.2055903,14.1346184 L22.4183523,15.8177631 C25.7914675,16.1540703 28.0593355,18.0721473 28.2426137,21.5929128 L30.0068653,21.6983105 C29.9590536,17.335168 26.7206081,13.9865789 22.2055903,14.1346184 L22.2055903,14.1346184 Z M22.3697438,12.5938812 L22.3769155,12.5938812 C24.3292264,12.6558325 26.2122104,13.3421243 27.7549344,14.5546 C27.9979772,14.7452813 28.2322545,14.9496402 28.4561726,15.1636538 C28.6721221,15.3720355 28.8785093,15.5900719 29.0729435,15.8177631 L29.0793184,15.8177631 C30.5304033,17.5089535 31.3296555,19.6700084 31.3320461,21.9066922 C31.3272649,24.5561165 30.2068775,27.0776154 28.2489886,28.842021 C28.0242736,29.0431616 27.7907932,29.235452 27.5469535,29.4140649 C27.5429692,29.4188923 27.5389849,29.4229151 27.5350006,29.4269379 C27.5262351,29.4309607 27.5190634,29.4357881 27.5102979,29.4398109 C27.2696457,29.6152055 27.0218217,29.7801409 26.7652323,29.9322032 C26.7628417,29.9346169 26.7620449,29.9370305 26.7596543,29.9394442 C26.6664215,29.9941545 26.5731887,30.0480602 26.4783621,30.0995522 C23.7475175,31.58397 20.4612603,31.58397 17.7312125,30.0995522 C17.4817948,29.9643857 17.2395489,29.8179553 17.0036778,29.6618702 C16.9654285,29.6353196 16.9263822,29.608769 16.8881329,29.5814139 C16.7128233,29.459925 16.5414981,29.3328041 16.374954,29.1992467 C16.2418781,29.0962627 16.1119897,28.9892559 15.9844918,28.8782263 C15.9709452,28.8669624 15.9558048,28.8540894 15.9414613,28.842021 C13.991541,27.0743971 12.8775285,24.5528983 12.8775285,21.9074967 C12.8783254,19.6716175 13.6759838,17.5105626 15.1238813,15.8177631 L15.1477872,15.7936263 C15.3430183,15.5675442 15.5494054,15.3519214 15.7653549,15.1459534 C15.9813044,14.9375718 16.2068162,14.7404539 16.4426873,14.5546 C18.1328307,13.2262673 20.2285767,12.533539 22.3705406,12.5946857 L22.3697438,12.5938812 Z M22.4127743,11.0040657 C19.6118058,10.9268277 16.8905235,11.9526449 14.8242614,13.8634808 L14.8242614,13.5062551 C14.8242614,13.2737365 14.6401863,13.087078 14.4098933,13.087078 L10.6606596,13.087078 C10.4303666,13.087078 10.2462915,13.2737365 10.2462915,13.5062551 L10.2462915,14.5546 L9,14.5546 L9,30.0987476 L14.7700748,30.0987476 C18.9089739,33.9670841 25.2998038,33.9670841 29.438703,30.0987476 L35,30.0987476 L35,14.5546 L30.0618487,14.5546 C28.0920069,12.3750402 25.333272,11.0933721 22.4127743,11.0040657 L22.4127743,11.0040657 Z" id="Shape" fill="#000000"></path>
            </g>
        </g>
    </g>
</svg>
