<svg width="44px" height="44px" viewBox="0 0 44 44" version="1.1" xmlns="http://www.w3.org/2000/svg" xmlns:xlink="http://www.w3.org/1999/xlink">
    <g id="fw" stroke="none" stroke-width="1" fill="none" fill-rule="evenodd">
        <g id="Social-Icons" transform="translate(-420.000000, -28.000000)">
            <g id="rss" transform="translate(420.000000, 28.000000)">
                <rect id="Rectangle" x="0" y="0" width="44" height="44"></rect>
                <circle id="Oval" stroke="#000000" stroke-width="2" cx="22" cy="22" r="21"></circle>
                <path d="M13.0078198,12 L13.0078198,15.6261759 C21.4744826,15.6317615 28.3559501,22.5255174 28.36377,31 L32,31 C31.9977658,25.7629351 29.8685325,21.0174036 26.4277987,17.5744356 C22.9870649,14.1325847 18.2437676,12.0022342 13.0078198,12 L13.0078198,12 Z M13.0022342,18.4614299 L13.0022342,22.088723 C15.3694144,22.0898401 17.611477,23.0204022 19.2860419,24.6994356 C20.9639581,26.3740005 21.8889346,28.6171802 21.8934031,30.9932973 L21.8934031,31 L25.5385701,31 C25.5352187,27.5436265 24.1298801,24.4134525 21.8587723,22.1412277 C19.5876646,19.8690028 16.4574906,18.462547 13.0022342,18.4614299 L13.0022342,18.4614299 Z M13.7395343,30.2403575 L13.7395343,30.2392404 L13.7384172,30.2392404 L13.7395343,30.2403575 L13.7395343,30.2403575 Z M17.3053857,26.6867944 C17.7667568,27.1470484 18.0471543,27.7704022 18.0482714,28.4652516 C18.0471543,29.1578669 17.7667568,29.7823377 17.3076199,30.2392404 L17.3053857,30.2403575 C16.8473659,30.6972601 16.2195437,30.9776576 15.52246,30.9776576 C14.8242592,30.9776576 14.1986712,30.696143 13.7395343,30.2392404 C13.2826317,29.7823377 13,29.158984 13,28.4652516 C13,27.7704022 13.2826317,27.1459313 13.7395343,26.6867944 C14.1986712,26.2298918 14.8242592,25.9472601 15.52246,25.9472601 C16.2195437,25.9472601 16.8473659,26.2298918 17.3053857,26.6867944 L17.3053857,26.6867944 Z" id="Shape" fill="#000000"></path>
            </g>
        </g>
    </g>
</svg>
